<!--?xml version="1.0" encoding="UTF-8"?-->
<svg width="456px" height="238px" viewBox="0 0 456 238" version="1.1" xmlns="http://www.w3.org/2000/svg" xmlns:xlink="http://www.w3.org/1999/xlink" class="">
    <g id="Page-1" stroke="none" stroke-width="1" fill="none" fill-rule="evenodd" stroke-linecap="square" stroke-linejoin="round">
        <g id="Group-5" transform="translate(0.000000, -2151.000000)" stroke-width="20">
            <g id="Group-3" transform="translate(78.000000, 2231.000000)">
                <path id="Path" stroke="#ED4E61" d="M47.7790858,44.0691359L29.5,0L0,71.4499969L59,71.4499969" class="iiuRZyZJ_0 zWflfyjN_0"></path>
                <path id="Path" stroke="#FFFFFF" d="M47.7790858,44.0691359L29.5,0L0,71.4499969L59,71.4499969" class="iiuRZyZJ_1 zWflfyjN_1"></path>
                <path id="Path" stroke="#ED4E61" d="M84.5,71.4499969L84.5,6L119.5,6" class="iiuRZyZJ_2 zWflfyjN_2"></path>
                <path id="Path" stroke="#FFFFFF" d="M84.5,71.4499969L84.5,6L119.5,6" class="iiuRZyZJ_3 zWflfyjN_3"></path>
                <path id="Path" stroke="#ED4E61" transform="translate(174.500000, 41.724998) scale(-1, -1) translate(-174.500000, -41.724998) " d="M192.779086,50.0691359L174.5,6L145,77.4499969L204,77.4499969" class="iiuRZyZJ_4 zWflfyjN_4"></path>
                <path id="Path" stroke="#FFFFFF" transform="translate(174.500000, 41.724998) scale(-1, -1) translate(-174.500000, -41.724998) " d="M192.779086,50.0691359L174.5,6L145,77.4499969L204,77.4499969" class="iiuRZyZJ_5 zWflfyjN_5"></path>
                <path d="M229.5,71.4499969 L229.5,6" id="Combined-Shape" stroke="#ED4E61" class="iiuRZyZJ_6 zWflfyjN_6"></path>
                <path d="M229.5,71.4499969 L229.5,6" id="Combined-Shape" stroke="#FFFFFF" class="iiuRZyZJ_7 zWflfyjN_7"></path>
                <path id="Path" stroke="#ED4E61" d="M255.5,71.4499969L255.5,6L299.5,6L299.5,71.4499969" class="iiuRZyZJ_8 zWflfyjN_8"></path>
                <path id="Path" stroke="#FFFFFF" d="M255.5,71.4499969L255.5,6L299.5,6L299.5,71.4499969" class="iiuRZyZJ_9 zWflfyjN_9"></path>
            </g>
        </g>
    </g>
<style>.zWflfyjN_0{stroke-dasharray:185 187;stroke-dashoffset:186;animation:zWflfyjN_draw 800ms ease-in 0ms forwards;}.zWflfyjN_1{stroke-dasharray:185 187;stroke-dashoffset:186;animation:zWflfyjN_draw 800ms ease-in 44ms forwards;}.zWflfyjN_2{stroke-dasharray:101 103;stroke-dashoffset:102;animation:zWflfyjN_draw 800ms ease-in 88ms forwards;}.zWflfyjN_3{stroke-dasharray:101 103;stroke-dashoffset:102;animation:zWflfyjN_draw 800ms ease-in 133ms forwards;}.zWflfyjN_4{stroke-dasharray:185 187;stroke-dashoffset:186;animation:zWflfyjN_draw 800ms ease-in 177ms forwards;}.zWflfyjN_5{stroke-dasharray:185 187;stroke-dashoffset:186;animation:zWflfyjN_draw 800ms ease-in 222ms forwards;}.zWflfyjN_6{stroke-dasharray:66 68;stroke-dashoffset:67;animation:zWflfyjN_draw 800ms ease-in 266ms forwards;}.zWflfyjN_7{stroke-dasharray:66 68;stroke-dashoffset:67;animation:zWflfyjN_draw 800ms ease-in 311ms forwards;}.zWflfyjN_8{stroke-dasharray:175 177;stroke-dashoffset:176;animation:zWflfyjN_draw 800ms ease-in 355ms forwards;}.zWflfyjN_9{stroke-dasharray:175 177;stroke-dashoffset:176;animation:zWflfyjN_draw 800ms ease-in 400ms forwards;}@keyframes zWflfyjN_draw{100%{stroke-dashoffset:0;}}@keyframes zWflfyjN_fade{0%{stroke-opacity:1;}92.5925925925926%{stroke-opacity:1;}100%{stroke-opacity:0;}}</style></svg>
