<svg width="456" height="238" viewBox="0 0 456 238" xmlns="http://www.w3.org/2000/svg"><g id="Page-1" fill="none" fill-rule="evenodd" stroke-linecap="square" stroke-linejoin="round"><g id="Group-5" transform="translate(0 -2151)" stroke-width="20"><g id="Group-3" transform="translate(78 2231)"><path id="Path" stroke="#ED4E61" d="M47.78 44.07L29.5 0 0 71.45h59" class="iiuRZyZJ_0 zWflfyjN_0"/><path stroke="#FFF" d="M47.78 44.07L29.5 0 0 71.45h59" class="iiuRZyZJ_1 zWflfyjN_1"/><path stroke="#ED4E61" d="M84.5 71.45V6h35" class="iiuRZyZJ_2 zWflfyjN_2"/><path stroke="#FFF" d="M84.5 71.45V6h35" class="iiuRZyZJ_3 zWflfyjN_3"/><path stroke="#ED4E61" transform="rotate(180 174.5 41.725)" d="M192.78 50.07L174.5 6 145 77.45h59" class="iiuRZyZJ_4 zWflfyjN_4"/><path stroke="#FFF" transform="rotate(180 174.5 41.725)" d="M192.78 50.07L174.5 6 145 77.45h59" class="iiuRZyZJ_5 zWflfyjN_5"/><path d="M229.5 71.45V6" id="Combined-Shape" stroke="#ED4E61" class="iiuRZyZJ_6 zWflfyjN_6"/><path d="M229.5 71.45V6" stroke="#FFF" class="iiuRZyZJ_7 zWflfyjN_7"/><path stroke="#ED4E61" d="M255.5 71.45V6h44v65.45" class="iiuRZyZJ_8 zWflfyjN_8"/><path stroke="#FFF" d="M255.5 71.45V6h44v65.45" class="iiuRZyZJ_9 zWflfyjN_9"/></g></g></g><style>.zWflfyjN_0,.zWflfyjN_1{stroke-dasharray:185 187;stroke-dashoffset:186;animation:zWflfyjN_draw 800ms ease-in 0ms forwards}.zWflfyjN_1{animation:zWflfyjN_draw 800ms ease-in 44ms forwards}.zWflfyjN_2,.zWflfyjN_3{stroke-dasharray:101 103;stroke-dashoffset:102;animation:zWflfyjN_draw 800ms ease-in 88ms forwards}.zWflfyjN_3{animation:zWflfyjN_draw 800ms ease-in 133ms forwards}.zWflfyjN_4,.zWflfyjN_5{stroke-dasharray:185 187;stroke-dashoffset:186;animation:zWflfyjN_draw 800ms ease-in 177ms forwards}.zWflfyjN_5{animation:zWflfyjN_draw 800ms ease-in 222ms forwards}.zWflfyjN_6,.zWflfyjN_7{stroke-dasharray:66 68;stroke-dashoffset:67;animation:zWflfyjN_draw 800ms ease-in 266ms forwards}.zWflfyjN_7{animation:zWflfyjN_draw 800ms ease-in 311ms forwards}.zWflfyjN_8,.zWflfyjN_9{stroke-dasharray:175 177;stroke-dashoffset:176;animation:zWflfyjN_draw 800ms ease-in 355ms forwards}.zWflfyjN_9{animation:zWflfyjN_draw 800ms ease-in 400ms forwards}@keyframes zWflfyjN_draw{to{stroke-dashoffset:0}}@keyframes zWflfyjN_fade{0%,92.5925925925926%{stroke-opacity:1}to{stroke-opacity:0}}</style></svg>